<?xml version="1.0" encoding="UTF-8"?> <svg xmlns="http://www.w3.org/2000/svg" width="1246" height="301" fill="none"> <path d="M466.56 42.05h749.07s16 29.8 24.53 81.48c8.53 51.7 4.38 99 4.38 99H466.56V42.05Z" fill="#888A8C"></path> <path d="M466.56 152.44h700.01s34.39 19.35 42.93 39.43c8.53 20.07 35.78 30.66 35.78 30.66H466.56v-70.09Z" fill="#D1D3D1"></path> <path d="M466.56 1.75h725.41l23.66 40.3H466.56V1.75Z" fill="url(#a)"></path> <rect x="485.83" y="59.58" width="96.37" height="73.59" rx="11" fill="#fff"></rect> <rect x="722.38" y="59.58" width="96.37" height="73.59" rx="11" fill="#fff"></rect> <rect x="824.01" y="59.58" width="96.37" height="73.59" rx="11" fill="#fff"></rect> <path opacity=".5" d="M597.97 55.57a3 3 0 0 1 3-3h99.14a3 3 0 0 1 3 3V208.5H597.97V55.57Zm339.93 0a3 3 0 0 1 3-3h99.14a3 3 0 0 1 3 3V208.5H937.9V55.57Z" fill="#D9D9D9"></path> <path d="M1109.62 55.57a3 3 0 0 1 3-3h46.57a3 3 0 0 1 3 3v165.2h-52.57V55.58Z" fill="#D9D9D9"></path> <rect x="603.23" y="59.58" width="42.05" height="71.84" rx="3" fill="#fff"></rect> <rect x="943.16" y="59.58" width="42.05" height="71.84" rx="3" fill="#fff"></rect> <rect x="1114.88" y="59.58" width="42.05" height="71.84" rx="3" fill="#fff"></rect> <rect x="655.8" y="59.58" width="42.05" height="71.84" rx="3" fill="#fff"></rect> <rect x="995.73" y="59.58" width="42.05" height="71.84" rx="3" fill="#fff"></rect> <path fill="#008EDC" d="M597.97 157.7H703.1v59.58H597.97zm339.93 0h105.13v59.58H937.9z"></path> <path fill="#252525" d="M568.19 236.55h240.05v35.04H568.19z"></path> <path d="M1166.57 238.3h77.97v36.8h-77.97v-36.8Z" fill="#D9D9D9"></path> <path fill="#C1C0C1" d="M256.29 222.53h988.25v15.77H256.29z"></path> <circle opacity=".5" cx="461.38" cy="276.54" r="12.04" fill="#D9D9D9"></circle> <path fill="#222" d="M256.69 236.98h259.73v43H256.69z"></path> <circle cx="457.94" cy="274.82" r="23.3" fill="#3C3D3C" stroke="#fff" stroke-width="5"></circle> <path d="M418.38 264.5v-5.16h6.88v5.16h67.09v-5.16h6.88v25.8h-80.85V264.5Z" fill="#3C3D3C"></path> <circle cx="457.94" cy="274.82" r="12.04" fill="#D9D9D9"></circle> <circle cx="313.46" cy="274.82" r="23.3" fill="#3C3D3C" stroke="#fff" stroke-width="5"></circle> <path d="M273.9 264.5v-5.16h6.88v5.16h67.08v-5.16h6.88v25.8h-80.85V264.5Z" fill="#3C3D3C"></path> <circle cx="313.46" cy="274.82" r="12.04" fill="#D9D9D9"></circle> <path fill="#3C3D3C" d="M256.69 243.86h259.73v15.48H256.69z"></path> <circle opacity=".5" cx="1066.86" cy="276.54" r="12.04" fill="#D9D9D9"></circle> <path fill="#222" d="M862.17 236.98h259.73v43H862.17z"></path> <circle cx="1063.42" cy="274.82" r="23.3" fill="#3C3D3C" stroke="#fff" stroke-width="5"></circle> <path d="M1023.85 264.5v-5.16h6.89v5.16h67.08v-5.16h6.88v25.8h-80.85V264.5Z" fill="#3C3D3C"></path> <circle cx="1063.42" cy="274.82" r="12.04" fill="#D9D9D9"></circle> <circle cx="918.93" cy="274.82" r="23.3" fill="#3C3D3C" stroke="#fff" stroke-width="5"></circle> <path d="M879.37 264.5v-5.16h6.88v5.16h67.08v-5.16h6.88v25.8h-80.84V264.5Z" fill="#3C3D3C"></path> <circle cx="918.93" cy="274.82" r="12.04" fill="#D9D9D9"></circle> <path fill="#3C3D3C" d="M862.17 243.86h259.73v15.48H862.17z"></path> <path fill-rule="evenodd" clip-rule="evenodd" d="M1167.53 157.7H466.56v-12.27h706.05l71.97 72.72v16.6l-77.05-77.05Z" fill="#008EDC"></path> <path stroke="#fff" stroke-width="7" d="M937.9 154.2h105.14"></path> <path fill-rule="evenodd" clip-rule="evenodd" d="M1168.07 224.28H466.56v-7h702.64c.73 0 1.44.22 2.03.65l64.55 57.17h-9.64l-58.07-50.82Z" fill="#008EDC"></path> <path stroke="#fff" stroke-width="7" d="M597.97 154.2h105.14"></path> <path opacity=".3" stroke="#000" d="M651.04 52.57v164.71M990.97 52.57v164.71"></path> <path d="M1183.21 61.58c0-1.1.9-2 2-2h13.21c.37 0 .72.1 1.03.3 2.79 1.92 17.34 12.87 24.06 37.37 10.18 37.05 13.08 57.3 13.8 63.56a1.92 1.92 0 0 1-1.93 2.15h-35.51a2 2 0 0 1-1.48-.67l-14.66-16.28a2.01 2.01 0 0 1-.52-1.34v-83.1Z" fill="#fff"></path> <path d="M408 40h-723v181h723V40Z" fill="#888A8C"></path> <path d="M408 150.69h-723v70.81s582.07-.72 723-.72v-70.09Z" fill="#D1D3D1"></path> <path d="M408 0h-723v40.3h723V0Z" fill="url(#b)"></path> <rect width="96.37" height="73.59" rx="11" transform="matrix(-1 0 0 1 388.72 57.82)" fill="#fff"></rect> <rect width="96.37" height="73.59" rx="11" transform="matrix(-1 0 0 1 152.17 57.82)" fill="#fff"></rect> <rect width="96.37" height="73.59" rx="11" transform="matrix(-1 0 0 1 50.54 57.82)" fill="#fff"></rect> <path opacity=".5" d="M276.57 53.81a3 3 0 0 0-3-3h-99.13a3 3 0 0 0-3 3v152.95h105.13V53.81Z" fill="#D9D9D9"></path> <rect width="42.05" height="71.84" rx="3" transform="matrix(-1 0 0 1 271.32 57.82)" fill="#fff"></rect> <rect width="42.05" height="71.84" rx="3" transform="matrix(-1 0 0 1 218.75 57.82)" fill="#fff"></rect> <path fill="#008EDC" d="M276.57 155.95H171.44v59.58h105.13z"></path> <path d="M409 222h-881v15h881v-15Z" fill="#C1C0C1"></path> <path fill-rule="evenodd" clip-rule="evenodd" d="M-302.98 155.95h710.97v-12.27H-315v12.27h12.02Zm8.46 66.58h702.51v-7h-703.64c-6.24 0-12.87.24-19.35 0v7h20.48Z" fill="#008EDC"></path> <path stroke="#fff" stroke-width="7" d="M276.57 152.45H171.44"></path> <path opacity=".3" stroke="#000" d="M223.5 50.81v164.71"></path> <path fill-rule="evenodd" clip-rule="evenodd" d="M1060.56 78.85h33.29v30.55c0 3.29-2.16 5.61-6.36 5.61h-3.92c-3.01 0-4.94 1.02-6.36 2.39-1.42-1.37-3.36-2.39-6.36-2.39h-3.91c-4.2 0-6.38-2.32-6.38-5.61V78.85Z" fill="#BC1729"></path> <path fill="url(#c)" d="M407.04 12.01h59.23v210.52h-59.23z"></path> <defs> <linearGradient id="a" x1="841.09" y1="1.75" x2="841.09" y2="42.05" gradientUnits="userSpaceOnUse"> <stop offset=".58" stop-color="#737473"></stop> <stop offset=".58" stop-color="#D1D4D1"></stop> </linearGradient> <linearGradient id="b" x1="33.46" y1="0" x2="33.46" y2="40.3" gradientUnits="userSpaceOnUse"> <stop offset=".58" stop-color="#737473"></stop> <stop offset=".58" stop-color="#D1D4D1"></stop> </linearGradient> <linearGradient id="c" x1="436.65" y1="12.01" x2="436.65" y2="222.53" gradientUnits="userSpaceOnUse"> <stop offset=".12" stop-color="#6E6C6E"></stop> <stop offset=".12" stop-color="#9D9E9D"></stop> </linearGradient> </defs> </svg> 